<svg width="299" height="47" viewBox="0 0 299 47" fill="none" xmlns="http://www.w3.org/2000/svg">
<mask id="mask0_62_61" style="mask-type:luminance" maskUnits="userSpaceOnUse" x="4" y="9" width="120" height="27">
<path d="M124 9.30402H4V35.304H124V9.30402Z" fill="white"/>
</mask>
<g mask="url(#mask0_62_61)">
<path d="M65.5155 24.5295C65.5155 30.5911 70.3657 35.0214 76.5257 35.0214C82.686 35.0214 87.54 30.5979 87.54 24.5295V10.6159H81.572V23.8154C81.572 27.0848 79.388 29.278 76.5091 29.278C73.6298 29.278 71.446 27.0848 71.446 23.8154V10.6159H65.4849L65.5155 24.5295Z" fill="#236CFF"/>
<path d="M103.485 16.2003H110.603V34.5375H116.568V16.2003H123.683V10.6159H103.485V16.2003Z" fill="#236CFF"/>
<path d="M99.63 10.6159H93.666V34.5375H99.63V10.6159Z" fill="#236CFF"/>
<path d="M41.419 16.2003H48.5373V34.5375H54.5018V16.2003H61.6171V10.6159H41.419V16.2003Z" fill="#236CFF"/>
<path d="M10.1293 10.6159H4.1651V34.5375H10.1293V22.5767V10.6159Z" fill="#236CFF"/>
<path d="M38.2797 20.6238C38.2797 14.5622 33.426 10.1319 27.266 10.1319C21.106 10.1319 16.2522 14.5554 16.2522 20.6238V34.5374H22.2165V21.338C22.2165 18.0686 24.4037 15.8754 27.2795 15.8754C30.1553 15.8754 32.3425 18.0686 32.3425 21.338V34.5374H38.3069L38.2797 20.6238Z" fill="#236CFF"/>
</g>
<path d="M135.696 34.704H143.686C149.704 34.704 156.334 30.692 156.334 22.668C156.334 14.644 149.704 10.632 143.686 10.632H135.696V34.704ZM138.144 12.808H143.006C150.248 12.808 153.75 17.704 153.75 22.668C153.75 27.632 150.248 32.528 143.006 32.528H138.144V12.808ZM162.584 25.524C162.788 22.804 165.066 20.322 168.16 20.322C171.458 20.322 173.294 22.532 173.43 25.524H162.584ZM175.776 26.272C175.776 21.92 173.158 18.384 168.16 18.384C163.638 18.384 160.136 21.954 160.136 26.748C160.136 31.542 163.638 35.112 168.364 35.112C170.982 35.112 173.328 34.126 175.198 31.746L173.464 30.386C172.58 31.814 170.744 33.14 168.364 33.14C165.1 33.14 162.618 30.556 162.55 27.36H175.742C175.776 26.952 175.776 26.578 175.776 26.272ZM193.737 18.792H191.255L186.053 32.256H185.985L180.817 18.792H178.233L184.727 34.704H187.277L193.737 18.792ZM198.643 25.524C198.847 22.804 201.125 20.322 204.219 20.322C207.517 20.322 209.353 22.532 209.489 25.524H198.643ZM211.835 26.272C211.835 21.92 209.217 18.384 204.219 18.384C199.697 18.384 196.195 21.954 196.195 26.748C196.195 31.542 199.697 35.112 204.423 35.112C207.041 35.112 209.387 34.126 211.257 31.746L209.523 30.386C208.639 31.814 206.803 33.14 204.423 33.14C201.159 33.14 198.677 30.556 198.609 27.36H211.801C211.835 26.952 211.835 26.578 211.835 26.272ZM219.188 9H216.876V34.704H219.188V9ZM241.184 26.748C241.184 21.954 237.648 18.384 232.684 18.384C227.754 18.384 224.218 21.954 224.218 26.748C224.218 31.542 227.754 35.112 232.684 35.112C237.648 35.112 241.184 31.542 241.184 26.748ZM238.736 26.748C238.736 30.318 236.39 33.14 232.684 33.14C229.012 33.14 226.666 30.318 226.666 26.748C226.666 23.178 229.012 20.322 232.684 20.322C236.39 20.322 238.736 23.178 238.736 26.748ZM248.472 32.018H248.574C249.9 33.99 252.28 35.112 254.558 35.112C259.522 35.112 262.786 31.44 262.786 26.748C262.786 22.056 259.522 18.384 254.558 18.384C252.28 18.384 249.9 19.472 248.574 21.546H248.472V18.792H246.16V42.864H248.472V32.018ZM260.338 26.748C260.338 30.284 258.162 33.14 254.32 33.14C250.75 33.14 248.2 30.386 248.2 26.748C248.2 23.11 250.75 20.322 254.32 20.322C258.162 20.322 260.338 23.212 260.338 26.748ZM269.034 25.524C269.238 22.804 271.516 20.322 274.61 20.322C277.908 20.322 279.744 22.532 279.88 25.524H269.034ZM282.226 26.272C282.226 21.92 279.608 18.384 274.61 18.384C270.088 18.384 266.586 21.954 266.586 26.748C266.586 31.542 270.088 35.112 274.814 35.112C277.432 35.112 279.778 34.126 281.648 31.746L279.914 30.386C279.03 31.814 277.194 33.14 274.814 33.14C271.55 33.14 269.068 30.556 269 27.36H282.192C282.226 26.952 282.226 26.578 282.226 26.272ZM287.199 22.294V34.704H289.511V26.544C289.511 22.294 291.721 20.526 294.169 20.526C294.781 20.526 295.529 20.628 295.801 20.73L296.107 18.554C295.631 18.418 295.155 18.384 294.577 18.384C292.333 18.384 290.361 19.676 289.477 21.512H289.409C289.409 20.832 289.341 19.642 289.273 18.792H287.063C287.165 19.88 287.199 21.444 287.199 22.294Z" fill="#5D686F"/>
</svg>
